<svg xmlns="http://www.w3.org/2000/svg" width="1000" height="1000"><path d="M54.453.5h891.094c29.89 0 53.953 24.063 53.953 53.953v891.094c0 29.89-24.063 53.953-53.953 53.953-314.32.922-578.324-1.9-891.094 0C24.563 999.682.5 975.437.5 945.547V54.453C.5 24.563 24.563.5 54.453.5z" fill="#3b579d"/><path d="M397.64 929.034V541.791H267.107V391.245h130.531V276.378c0-120.414 74.651-195.256 192.236-195.256 70.783 0 118.429 5.55 118.429 5.55v135.753h-79.748c-50.537 0-74.279 17.774-74.279 71.357v97.463h148.806l-19.145 150.546H554.277v387.243z" fill="#fff"/></svg>