<svg xmlns="http://www.w3.org/2000/svg" xmlns:xlink="http://www.w3.org/1999/xlink" width="500" height="500"><g transform="translate(0 -552.362)"><path d="M488.914 272.21a233.85 251.023 0 1 1-467.7 0 233.85 251.023 0 1 1 467.7 0z" transform="matrix(1.06686 0 0 .99387 -22.117 531.82)" fill="red" fill-rule="evenodd" stroke="red"/><path d="M251.499 1051.863V552.861c334.783 8.442 327.932 497.881 0 499.002z" stroke="#000" stroke-width=".998"/><path d="M990.96 254.533a130.815 151.523 0 1 1-261.63 0 130.815 151.523 0 1 1 261.63 0z" transform="matrix(1.33304 0 0 1.15085 -896.604 509.432)" fill="#fff" stroke="#fff"/><path fill="#fff" stroke="#fff" stroke-width="1.202" d="M232.601 552.963h18.798v498.798h-18.798z"/><path stroke="#000" stroke-width="1.394" d="M252.697 593.474h73.606V992.08h-73.606z"/><text style="text-align:justify;line-height:125%;-inkscape-font-specification:Arial Narrow Bold" transform="matrix(.49743 .84088 -.83501 .49396 790.074 194.777)" font-size="57.52" font-weight="700" letter-spacing="0" word-spacing="0" fill="#fff" font-family="Arial Narrow"><textPath xlink:href="#a"><tspan style="text-align:justify;line-height:125%;-inkscape-font-specification:Arial Narrow Bold"><tspan y="674.348" x="69.281" style="text-align:justify;line-height:125%;-inkscape-font-specification:Arial Narrow Bold">OFFICE</tspan></tspan></textPath></text><flowRoot xml:space="preserve" style="line-height:125%" fill="#000" stroke="none" stroke-opacity="1" stroke-width="1" stroke-linejoin="miter" stroke-linecap="butt" fill-opacity="1" font-family="Sans" font-style="normal" font-weight="400" font-size="40" letter-spacing="0" word-spacing="0"><flowRegion><path d="M343.571-22.143h339.286v124.286H343.571z"/></flowRegion><flowPara/></flowRoot></g></svg>