<svg version="1" xmlns="http://www.w3.org/2000/svg" width="512" height="512" viewBox="0 0 512 512"><path fill="#1A171B" d="M464.068 111.81H52.56c-6.47 0-11.766 5.294-11.766 11.766v268.85c0 6.47 5.295 11.766 11.766 11.766h411.508c6.47 0 11.767-5.295 11.767-11.767v-268.85c0-6.47-5.297-11.766-11.767-11.766zM181.256 324.08l65.103 22.27-72.46 26.372-52.698-144.802 88.42-32.18-37.517 109.68c-2.616 7.644 1.5 16.045 9.15 18.66zm40.163-7.46a4.115 4.115 0 0 1 5.217-2.563l14.797 5.062a4.116 4.116 0 1 1-2.664 7.785l-14.797-5.062a4.115 4.115 0 0 1-2.554-5.224zm-23.98-28.227l44.186-129.175 82.805 28.325-44.186 129.175-82.805-28.325zm145.734-98.6c2.615-7.648-1.503-16.048-9.15-18.665l-29.27-10.012 37.992-13.827 52.7 144.8-99.675 36.277 47.404-138.575zm-281.886-57.67h264.495l-51.252 18.654-30.432-10.41c-7.65-2.616-16.05 1.502-18.665 9.15l-7.475 21.85-102.67 37.368c-11.562 4.206-17.522 16.987-13.312 28.547l51.174 140.6a22.247 22.247 0 0 0 3.292 5.993H61.288V132.123zm394.05 251.753H201.83l199.508-72.612c11.56-4.21 17.52-16.992 13.312-28.554l-51.177-140.602a22.17 22.17 0 0 0-7.286-9.985h99.152v251.753z"/></svg>