<svg version="1" xmlns="http://www.w3.org/2000/svg" width="512" height="512" viewBox="0 0 512 512"><path fill="#1A171B" d="M464.068 111.809H52.56v.001c-6.471 0-11.766 5.294-11.766 11.766v268.849c0 6.472 5.295 11.767 11.766 11.767h411.508c6.471 0 11.767-5.295 11.767-11.767v-268.85c-.001-6.471-5.297-11.766-11.767-11.766zM181.256 324.081l65.103 22.27-72.458 26.371-52.699-144.802 88.421-32.18-37.518 109.679c-2.616 7.645 1.501 16.046 9.151 18.662zm40.163-7.462a4.115 4.115 0 0 1 5.218-2.562l14.797 5.062a4.116 4.116 0 1 1-2.664 7.786l-14.797-5.062a4.115 4.115 0 0 1-2.554-5.224zm-23.98-28.226l44.187-129.175 82.805 28.325-44.187 129.175-82.805-28.325zm145.735-98.601c2.615-7.647-1.503-16.047-9.15-18.664l-29.27-10.012 37.992-13.827 52.7 144.802-99.675 36.276 47.403-138.575zM61.288 132.123h264.495l-51.252 18.654-30.433-10.41c-7.649-2.616-16.049 1.502-18.665 9.149l-7.475 21.851-102.67 37.368c-11.562 4.206-17.522 16.987-13.312 28.547l51.174 140.6a22.247 22.247 0 0 0 3.292 5.993H61.288V132.123zm394.051 251.753H201.83l199.508-72.612c11.56-4.211 17.521-16.992 13.312-28.554l-51.177-140.602a22.171 22.171 0 0 0-7.286-9.985h99.152v251.753z"/></svg>