<?xml version="1.0" encoding="UTF-8" standalone="no"?>
<!-- Created with Inkscape (http://www.inkscape.org/) -->

<svg
   xmlns:dc="http://purl.org/dc/elements/1.1/"
   xmlns:cc="http://creativecommons.org/ns#"
   xmlns:rdf="http://www.w3.org/1999/02/22-rdf-syntax-ns#"
   xmlns:svg="http://www.w3.org/2000/svg"
   xmlns="http://www.w3.org/2000/svg"
   xmlns:sodipodi="http://sodipodi.sourceforge.net/DTD/sodipodi-0.dtd"
   xmlns:inkscape="http://www.inkscape.org/namespaces/inkscape"
   width="500"
   height="500"
   id="svg2"
   version="1.1"
   inkscape:version="0.48.2 r9819"
   sodipodi:docname="logo.svg">
  <defs
     id="defs4" />
  <sodipodi:namedview
     id="base"
     pagecolor="#ffffff"
     bordercolor="#666666"
     borderopacity="1.0"
     inkscape:pageopacity="0.0"
     inkscape:pageshadow="2"
     inkscape:zoom="0.7"
     inkscape:cx="414.73351"
     inkscape:cy="281.9464"
     inkscape:document-units="px"
     inkscape:current-layer="layer1"
     showgrid="false"
     inkscape:snap-nodes="true"
     inkscape:snap-page="false"
     inkscape:window-width="1680"
     inkscape:window-height="988"
     inkscape:window-x="-8"
     inkscape:window-y="-8"
     inkscape:window-maximized="1" />
  <metadata
     id="metadata7">
    <rdf:RDF>
      <cc:Work
         rdf:about="">
        <dc:format>image/svg+xml</dc:format>
        <dc:type
           rdf:resource="http://purl.org/dc/dcmitype/StillImage" />
        <dc:title />
      </cc:Work>
    </rdf:RDF>
  </metadata>
  <g
     inkscape:label="1. réteg"
     inkscape:groupmode="layer"
     id="layer1"
     transform="translate(0,-552.36218)">
    <path
       style="fill:#000000;stroke:#000000;stroke-width:0.99895996px;stroke-linecap:butt;stroke-linejoin:miter;stroke-opacity:1"
       d="M 250.5 0.5 L 250.5 75.625 C 250.56254 75.625176 250.62498 75.624758 250.6875 75.625 L 250.6875 424.375 C 250.62498 424.37524 250.56254 424.37482 250.5 424.375 L 250.5 499.5 C 579.06043 498.3788 585.92463 8.94183 250.5 0.5 z M 324.3125 92.21875 C 383.4461 120.12054 424.375 180.27614 424.375 250 C 424.375 319.72386 383.4461 379.87946 324.3125 407.78125 L 324.3125 92.21875 z "
       transform="translate(0,552.36218)"
       id="path3849" />
    <path
       style="fill:#ff0000;stroke:#ff0000;stroke-width:0.99895895px;stroke-linecap:butt;stroke-linejoin:miter;stroke-opacity:1"
       d="m 219.9375,2.5625 c -295.410527,34.47535 -289.747301,466.94177 0,495.46875 l 0,-76.75 C 137.96095,407.03256 75.625,335.55319 75.625,249.5 c 0,-86.05319 62.33595,-157.532557 144.3125,-171.78125 z"
       transform="translate(0,552.36218)"
       id="path3013"
       inkscape:connector-curvature="0"
       sodipodi:nodetypes="cccscc" />
  </g>
</svg>
